<svg xmlns="http://www.w3.org/2000/svg" xmlns:xlink="http://www.w3.org/1999/xlink" width="400" height="400" viewBox="0 0 400 400"><defs><linearGradient id="gradient-1" x1="49.99999999999999%" y1="0%" x2="50.00000000000001%" y2="100%"><stop offset="0.00" stop-color="#17ead9"/><stop offset="1.00" stop-color="#6078eb"/></linearGradient></defs>
<rect data-name="background" width="100%" height="100%" fill="none"/><g data-name="icon" fill="url(#gradient-1)" data="id:7213029" transform="translate(-7.828071128427673,136.9312476061497) scale(1.2613044632499464)">
    
 <path d="m20.879 59.988c-0.37109 0-0.71094 0.14062-0.96875 0.39844l-2.0781 2.0781c-0.26172 0.26172-0.39844 0.60938-0.39844 0.96875s0.14062 0.71094 0.39844 0.96875l14.578 14.598c0.53906 0.53906 1.4102 0.53906 1.9492 0l2.0781-2.0781c0.53906-0.53906 0.53906-1.4102 0-1.9414l-14.578-14.59c-0.25781-0.26172-0.60938-0.40234-0.98047-0.40234z"/>
 <path d="m80.012 39.609 2.0781-2.0781c0.53906-0.53906 0.53906-1.4102 0-1.9492l-14.578-14.582c-0.26953-0.26953-0.62109-0.39844-0.96875-0.39844-0.35156 0-0.69922 0.12891-0.96875 0.39844l-2.0781 2.0781c-0.53906 0.53906-0.53906 1.4102 0 1.9414l14.578 14.578c0.52734 0.54297 1.4062 0.54297 1.9375 0.011719z"/>
 <path d="m36.398 24.32c0-0.37109-0.14063-0.71094-0.39844-0.96875l-2.0781-2.0781c-0.26953-0.26953-0.62109-0.39844-0.96875-0.39844-0.35156 0-0.69922 0.12891-0.96875 0.39844l-14.594 14.578c-0.26172 0.26172-0.39844 0.60938-0.39844 0.96875 0 0.35938 0.14062 0.71094 0.39844 0.96875l2.0781 2.0781c0.51953 0.51953 1.4219 0.51953 1.9414 0l14.59-14.566c0.26172-0.26172 0.39844-0.60938 0.39844-0.98047z"/>
 <path d="m55.73 40.57c0.019531-0.76953 0.32812-1.5195 0.91016-2.1016 0.58984-0.58984 1.4219-0.87109 2.2109-0.91016 0.60156 0 1.1484 0.16016 1.6406 0.46875 0.17969 0.10156 0.37109 0.25 0.55859 0.44141l4.5508 4.5391c0.011719 0.011719 0.019532 0.03125 0.03125 0.050782 0.98828 0.98828 1.9297 2.0586 2.8008 3.1914 0.60156 0.76172 1.3086 1.6992 1.9414 2.7695 0.039062-0.10156 0.089844-0.19922 0.12109-0.30078 0.23047-0.71875 0.32812-1.3281 0.42969-1.9883 0.10938-0.69922 0.23047-1.4297 0.51953-2.2695 0.69922-2.1016 2.1719-4.0117 4.3711-5.6914l-11.008-11c-1.6797 2.1914-3.5898 3.6719-5.6914 4.3711-0.85938 0.28906-1.5898 0.41016-2.3008 0.51953-1.0898 0.17188-2.1211 0.33984-3.6094 1.1211-1.0195 0.53906-1.9102 1.1797-2.7188 1.8008 0.28125 0.14844 0.55078 0.32031 0.78125 0.55078z"/>
 <path d="m29.52 48.641c0.73828-1.3398 1.6484-2.5586 2.7695-3.6484l2.2109-2.2617s0.011719 0 0.011719-0.011719l5.7383-5.7383c0.011719-0.011719 0.011719-0.011719 0.011719-0.019531 0.60156-0.60156 1.3906-0.94141 2.2383-0.92188 0.80859 0 1.5898 0.32031 2.1797 0.91016l1.2695 1.2695c0.03125-0.78906 0.33984-1.5312 0.91016-2.0898 0.58984-0.60156 1.3984-0.91016 2.2109-0.91016h0.03125c0.089844 0 0.17969 0.019531 0.26953 0.03125-0.82031-0.67188-1.6914-1.2305-2.5898-1.6797-0.28906-0.14844-0.87109-0.44922-1.6719-0.71094-0.69922-0.21875-1.3203-0.32031-1.9609-0.42188-0.71094-0.12109-1.4414-0.23047-2.2891-0.51953-2.1016-0.69922-4.0117-2.1719-5.6914-4.3711l-11.008 11.012c2.1797 1.6602 3.6484 3.5703 4.3789 5.6914 0.28906 0.85156 0.39844 1.5781 0.51172 2.2812 0.10938 0.67969 0.21875 1.3398 0.46875 2.1094z"/>
 <path d="m80.531 60.359c-0.26953-0.26953-0.62109-0.39844-0.96875-0.39844-0.35156 0-0.69922 0.12891-0.96875 0.39844l-14.594 14.582c-0.26172 0.26172-0.39844 0.60156-0.39844 0.96875 0 0.37109 0.14063 0.71094 0.39844 0.96875l2.0898 2.0898c0.53906 0.53125 1.3984 0.53125 1.9414 0l14.59-14.59c0.53125-0.53125 0.53125-1.3984 0-1.9414z"/>
 <path d="m46.34 62.281c-0.011719 0-0.011719 0 0 0l-8.0391-8.0312c-0.58984-0.58984-0.92188-1.3789-0.92188-2.2109 0-0.82812 0.32812-1.6211 0.92188-2.2109 0.55859-0.55859 1.3086-0.89062 2.1016-0.89844l-0.96875-0.96875c-0.44141-0.42969-0.73047-0.98828-0.85156-1.5898-0.19922-1.0312 0.12109-2.0898 0.85938-2.8281 0.57031-0.57031 1.3008-0.89062 2.1094-0.89844l-1.2812-1.2812c-0.55859-0.55859-0.87891-1.3008-0.91016-2.0898l-4.1406 4.1406h-0.011719l-2.2109 2.2695c-1.2109 1.1914-2.1797 2.5-2.8789 3.9219-0.050782 0.10156-0.12109 0.23828-0.19922 0.39844-0.14844 0.32031-0.33984 0.73828-0.51172 1.2812-0.21875 0.71094-0.32031 1.3281-0.42969 1.9805-0.10937 0.69922-0.23047 1.4297-0.51953 2.2812-0.69922 2.1016-2.1719 4.0117-4.3711 5.6914l11.012 11.012c1.6602-2.1797 3.5703-3.6602 5.6797-4.3789 0.85938-0.28906 1.5898-0.41016 2.3008-0.51953 1.0898-0.17187 2.1211-0.33984 3.6094-1.1211 0.85156-0.44141 1.5781-0.94141 2.1992-1.4102-0.089844-0.089843-0.19141-0.17969-0.28906-0.28125z"/>
 <path d="m75.852 61.68c-2.1914-1.6719-3.6602-3.5781-4.3789-5.6914-0.28906-0.85156-0.41016-1.5781-0.51953-2.2891-0.16016-1.0117-0.30859-1.9688-0.96094-3.2812-0.058594-0.12891-0.10938-0.23047-0.16016-0.33984-0.66016-1.2617-1.5-2.3516-2.1914-3.2188-0.85938-1.1094-1.7891-2.1719-2.7617-3.1406-0.011718-0.011719-0.011718-0.019531-0.019531-0.03125-0.011719-0.011719-0.019531-0.019531-0.019531-0.03125l-4.5-4.4883c-0.12891-0.12891-0.25-0.23047-0.37109-0.30078-0.35156-0.21875-0.71094-0.28906-1.1484-0.32031-0.55859 0-1.0781 0.21875-1.4805 0.62109-0.53125 0.53125-0.73828 1.2812-0.55078 1.9883 0.078126 0.39062 0.26953 0.73047 0.55078 1.0117l4.5508 4.5508c0.19922 0.19922 0.19922 0.51172 0 0.71094-0.050781 0.050781-0.10938 0.089843-0.17188 0.10937-0.17969 0.070313-0.39844 0.039063-0.53906-0.10937l-10.609-10.602c-0.39844-0.39844-0.94922-0.58984-1.4883-0.62109-0.55859 0-1.1016 0.21094-1.5 0.62109-0.37109 0.37109-0.57812 0.85156-0.60938 1.3594 0.027344 0.11328 0.027344 0.23438-0.011718 0.34375 0.050781 0.48828 0.25 0.94141 0.60156 1.3008l10.602 10.602c0.19922 0.19922 0.19922 0.51953 0 0.71094-0.10156 0.10156-0.23047 0.14844-0.35937 0.14844-0.12891 0-0.25-0.050781-0.35156-0.14062l-10.594-10.613-2.8789-2.8789c-0.39844-0.39844-0.94922-0.58984-1.5-0.62109-0.57031 0-1.1016 0.21875-1.5117 0.62109l-0.011719 0.011719c-0.39844 0.39844-0.62109 0.92188-0.62109 1.4805 0 0.57031 0.21875 1.1094 0.62109 1.5117l9.2383 9.2383 4.25 4.2383c0.19922 0.19922 0.19922 0.51172 0 0.71094-0.050781 0.050782-0.10937 0.089844-0.17187 0.10938-0.035157 0.027343-0.10156 0.039062-0.16406 0.039062-0.12891 0-0.26172-0.050781-0.35156-0.14844l-4.2383-4.2383-6.3711-6.3594c-0.39844-0.39844-0.92188-0.62109-1.4688-0.62109h-0.050782c-0.55859 0-1.0781 0.21875-1.4805 0.62109-0.5 0.5-0.71875 1.2188-0.57813 1.9297 0.078126 0.42188 0.28125 0.78125 0.57813 1.0781l10.609 10.609c0.19922 0.19141 0.19922 0.51172 0 0.71094-0.10156 0.10156-0.23047 0.14844-0.35156 0.14844s-0.26172-0.050781-0.35156-0.14844l-8.0547-8.043c-0.011719-0.011718-0.089844-0.078124-0.10156-0.089843-0.37891-0.33984-0.87109-0.53125-1.3594-0.53125h-0.050781c-0.55859 0-1.0781 0.21875-1.4805 0.62109-0.39844 0.39844-0.62109 0.92969-0.62109 1.5 0 0.57031 0.21875 1.1016 0.62109 1.5l8.0312 8.0312 2.2617 2.2188c0.16016 0.16016 0.28125 0.28125 0.41016 0.39844 0.12109 0.10938 0.21094 0.19922 0.30859 0.28125 1 0.89844 2.0781 1.6406 3.2109 2.1992 0.28906 0.14844 0.87109 0.44922 1.6719 0.71094 0.69922 0.21875 1.3086 0.30859 1.9492 0.42188 0.71094 0.10938 1.4492 0.23047 2.3086 0.51953 2.1016 0.69922 4.0117 2.1797 5.6914 4.3711z"/>

    </g><g data-name="business_name" fill="url(#gradient-1)" data="id:305" transform="translate(119.09691037225059,165.6522812112206) scale(0.9169171884506511)"><path d="M3.04,48l0-28l12.28,0q2.64,0,4.8,1.14t3.44,3.2t1.28,4.82q0,2.8-1.42,4.94t-3.82,3.18l3,6.08q0.32,0.64,0.7,0.94t1.1,0.3l2,0l0,3.4l-2.6,0q-1.56,0-2.74-0.8t-1.94-2.16l-3.36-6.84q-0.4,0.04-0.86,0.06t-0.94,0.02l-7.08,0l0,9.72l-3.84,0z M6.88,34.88l7.92,0q1.72,0,3.14-0.68t2.24-1.96t0.82-3.08q0-1.84-0.84-3.12t-2.24-1.96t-3.08-0.68l-7.96,0l0,11.48z M40.4,48q-3.36,0-5.96-1.26t-4.06-3.56t-1.46-5.38q0-3.04,1.24-5.46t3.44-3.82t5.12-1.4q3.16,0,5.26,1.36t3.14,3.66t1.04,5.14q0,0.44-0.02,0.92t-0.1,0.84l-15.2,0q0.2,1.88,1.24,3.18t2.66,1.96t3.58,0.66l5.32,0l0,3.16l-5.24,0z M32.8,36.44l11.64,0q0-0.76-0.16-1.62t-0.56-1.68t-1.06-1.48t-1.64-1.06t-2.3-0.4q-1.4,0-2.46,0.54t-1.82,1.44t-1.16,2.02t-0.48,2.24z M52.56,48l0-3.16l9.76,0q0.96,0,1.66-0.42t1.06-1.1t0.36-1.44q0-0.72-0.32-1.34t-0.98-1t-1.58-0.38l-4.12,0q-1.96,0-3.42-0.66t-2.28-1.94t-0.82-3.12q0-1.56,0.76-2.88t2.12-2.14t3.12-0.82l9.4,0l0,3.16l-9.04,0q-1.24,0-1.96,0.76t-0.72,1.8q0,1,0.74,1.74t2.1,0.74l3.92,0q2.2,0,3.7,0.7t2.28,2.02t0.78,3.24q0,1.64-0.8,3.06t-2.22,2.3t-3.3,0.88l-10.2,0z M83.48,48.48q-2.76,0-4.94-1.14t-3.4-3.18t-1.22-4.76l0-11.8l3.72,0l0,11.76q0,1.84,0.8,3.18t2.14,2.06t2.86,0.72q1.56,0,2.9-0.72t2.16-2.06t0.82-3.18l0-11.76l3.72,0l0,11.8q0,2.72-1.24,4.76t-3.4,3.18t-4.92,1.14z M98.88,48l0-12.28q0-2.36,1.08-4.32t3.12-3.12t4.92-1.16q1.4,0,2.8,0.38t2.6,1.28t1.92,2.42l0.04,0q0.8-1.52,2-2.42t2.6-1.28t2.84-0.38q2.84,0,4.88,1.16t3.12,3.12t1.08,4.32l0,12.28l-3.68,0l0-12.28q0-1.52-0.72-2.76t-1.94-1.96t-2.78-0.72q-1.52,0-2.8,0.74t-2.02,1.96t-0.74,2.74l0,12.28l-3.68,0l0-12.28q0-1.52-0.74-2.74t-2-1.96t-2.82-0.74q-1.52,0-2.74,0.72t-1.94,1.96t-0.72,2.76l0,12.28l-3.68,0z M148.08,48q-3.36,0-5.96-1.26t-4.06-3.56t-1.46-5.38q0-3.04,1.24-5.46t3.44-3.82t5.12-1.4q3.16,0,5.26,1.36t3.14,3.66t1.04,5.14q0,0.44-0.02,0.92t-0.1,0.84l-15.2,0q0.2,1.88,1.24,3.18t2.66,1.96t3.58,0.66l5.32,0l0,3.16l-5.24,0z M140.48,36.44l11.64,0q0-0.76-0.16-1.62t-0.56-1.68t-1.06-1.48t-1.64-1.06t-2.3-0.4q-1.4,0-2.46,0.54t-1.82,1.44t-1.16,2.02t-0.48,2.24z  M171.24,48l0-28l12.28,0q2.64,0,4.8,1.14t3.44,3.2t1.28,4.82q0,2.8-1.42,4.94t-3.82,3.18l3,6.08q0.32,0.64,0.7,0.94t1.1,0.3l2,0l0,3.4l-2.6,0q-1.56,0-2.74-0.8t-1.94-2.16l-3.36-6.84q-0.4,0.04-0.86,0.06t-0.94,0.02l-7.08,0l0,9.72l-3.84,0z M175.08,34.88l7.92,0q1.72,0,3.14-0.68t2.24-1.96t0.82-3.08q0-1.84-0.84-3.12t-2.24-1.96t-3.08-0.68l-7.96,0l0,11.48z M208.6,48q-3.36,0-5.96-1.26t-4.06-3.56t-1.46-5.38q0-3.04,1.24-5.46t3.44-3.82t5.12-1.4q3.16,0,5.26,1.36t3.14,3.66t1.04,5.14q0,0.44-0.02,0.92t-0.1,0.84l-15.2,0q0.2,1.88,1.24,3.18t2.66,1.96t3.58,0.66l5.32,0l0,3.16l-5.24,0z M201,36.44l11.64,0q0-0.76-0.16-1.62t-0.56-1.68t-1.06-1.48t-1.64-1.06t-2.3-0.4q-1.4,0-2.46,0.54t-1.82,1.44t-1.16,2.02t-0.48,2.24z M229.52,48.48q-2.96,0-5.12-1.42t-3.32-3.86t-1.16-5.4q0-3,1.28-5.42t3.68-3.84t5.76-1.42q3.24,0,5.56,1.4t3.58,3.8t1.26,5.36l0,10.32l-3.72,0l0-4.16l-0.08,0q-0.6,1.16-1.62,2.22t-2.54,1.74t-3.56,0.68z M230.48,45.32q2,0,3.54-0.98t2.4-2.72t0.86-3.9q0-2.12-0.82-3.8t-2.34-2.66t-3.56-0.98q-2.16,0-3.7,1t-2.36,2.7t-0.82,3.86q0,2.08,0.8,3.78t2.32,2.7t3.68,1z M256.28,48.48q-2.32,0-4.24-0.74t-3.32-2.18t-2.18-3.46t-0.78-4.54q0-3.2,1.3-5.54t3.56-3.62t5.06-1.28q1.56,0,2.98,0.52t2.54,1.44t1.76,2.16l0.08,0l0-12.44l3.68,0l0,18.88q0,3.4-1.38,5.82t-3.72,3.7t-5.34,1.28z M256.28,45.32q1.88,0,3.4-0.92t2.42-2.6t0.9-3.96q0-2.32-0.9-4.02t-2.42-2.62t-3.44-0.92q-1.88,0-3.42,0.96t-2.44,2.64t-0.9,3.92q0,2.32,0.92,4t2.46,2.6t3.42,0.92z M280.16,56.12l0-7.8q-2.24-0.32-3.98-1.5t-2.74-3.08t-1-4.34l0-11.8l3.72,0l0,11.76q0,1.84,0.8,3.18t2.14,2.06t2.86,0.72q1.56,0,2.9-0.72t2.16-2.06t0.82-3.18l0-11.76l3.68,0l0,11.8q0,2.44-0.98,4.32t-2.72,3.06t-3.98,1.54l0,7.8l-3.68,0z"/></g></svg>